<svg xmlns="http://www.w3.org/2000/svg" viewBox="0 0 32 32" width="32" height="32" shape-rendering="crispEdges">
  <title>Omni Text - Processing (Frame 2)</title>
  <!-- 32x32 pixel art sitting cat - Processing state frame 2 (amber, eyes closed/blink) -->

  <!-- Left ear -->
  <rect x="7" y="2" width="2" height="2" fill="#D4A017"/>
  <rect x="6" y="4" width="2" height="2" fill="#D4A017"/>
  <rect x="8" y="4" width="2" height="2" fill="#E8B82A"/>

  <!-- Right ear -->
  <rect x="23" y="2" width="2" height="2" fill="#D4A017"/>
  <rect x="24" y="4" width="2" height="2" fill="#D4A017"/>
  <rect x="22" y="4" width="2" height="2" fill="#E8B82A"/>

  <!-- Head top -->
  <rect x="8" y="4" width="2" height="2" fill="#F5C542"/>
  <rect x="10" y="4" width="12" height="2" fill="#F5C542"/>
  <rect x="22" y="4" width="2" height="2" fill="#F5C542"/>

  <!-- Head row with ears merging -->
  <rect x="6" y="6" width="20" height="2" fill="#F5C542"/>

  <!-- Head row with eyes FULLY CLOSED (no dark pixels = blink) -->
  <rect x="6" y="8" width="20" height="2" fill="#F5C542"/>

  <!-- Head row below eyes -->
  <rect x="6" y="10" width="20" height="2" fill="#F5C542"/>

  <!-- Head row with nose/mouth -->
  <rect x="6" y="12" width="8" height="2" fill="#F5C542"/>
  <rect x="14" y="12" width="4" height="2" fill="#FFB0B0"/>
  <rect x="18" y="12" width="8" height="2" fill="#F5C542"/>

  <!-- Neck -->
  <rect x="8" y="14" width="16" height="2" fill="#F5C542"/>

  <!-- Body -->
  <rect x="6" y="16" width="20" height="2" fill="#F5C542"/>
  <rect x="6" y="18" width="20" height="2" fill="#F5C542"/>
  <rect x="6" y="20" width="20" height="2" fill="#F5C542"/>
  <rect x="6" y="22" width="20" height="2" fill="#F5C542"/>

  <!-- Feet -->
  <rect x="6" y="24" width="4" height="2" fill="#D4A017"/>
  <rect x="10" y="24" width="12" height="2" fill="#F5C542"/>
  <rect x="22" y="24" width="4" height="2" fill="#D4A017"/>

  <!-- Tail -->
  <rect x="26" y="22" width="2" height="2" fill="#D4A017"/>
  <rect x="28" y="24" width="2" height="2" fill="#D4A017"/>
</svg>
