<svg xmlns="http://www.w3.org/2000/svg" viewBox="0 0 16 16" width="16" height="16" shape-rendering="crispEdges">
  <title>Omni Text - Processing (Frame 2)</title>
  <!-- 16x16 pixel art sitting cat - Processing state frame 2 (yellow, eyes closed/blink) -->

  <!-- Ears (darker amber) -->
  <rect x="4" y="1" width="1" height="1" fill="#D4A017"/>
  <rect x="3" y="2" width="1" height="1" fill="#D4A017"/>
  <rect x="4" y="2" width="1" height="1" fill="#D4A017"/>
  <rect x="11" y="1" width="1" height="1" fill="#D4A017"/>
  <rect x="10" y="2" width="1" height="1" fill="#D4A017"/>
  <rect x="11" y="2" width="1" height="1" fill="#D4A017"/>

  <!-- Head outline edges (darker amber) -->
  <rect x="3" y="3" width="1" height="1" fill="#D4A017"/>
  <rect x="11" y="3" width="1" height="1" fill="#D4A017"/>

  <!-- Head fill row 3 -->
  <rect x="4" y="3" width="7" height="1" fill="#F5C542"/>

  <!-- Head row 4 (eyes CLOSED - same color as body = blink) -->
  <rect x="3" y="4" width="9" height="1" fill="#F5C542"/>

  <!-- Head row 5 -->
  <rect x="3" y="5" width="9" height="1" fill="#F5C542"/>

  <!-- Head row 6 (with nose) -->
  <rect x="3" y="6" width="4" height="1" fill="#F5C542"/>
  <rect x="7" y="6" width="1" height="1" fill="#FFB0B0"/>
  <rect x="8" y="6" width="4" height="1" fill="#F5C542"/>

  <!-- Neck row 7 -->
  <rect x="4" y="7" width="7" height="1" fill="#F5C542"/>

  <!-- Body rows 8-11 -->
  <rect x="3" y="8" width="9" height="1" fill="#F5C542"/>
  <rect x="3" y="9" width="9" height="1" fill="#F5C542"/>
  <rect x="3" y="10" width="9" height="1" fill="#F5C542"/>
  <rect x="3" y="11" width="9" height="1" fill="#F5C542"/>

  <!-- Feet + tail row 12 -->
  <rect x="3" y="12" width="2" height="1" fill="#F5C542"/>
  <rect x="10" y="12" width="2" height="1" fill="#F5C542"/>
  <rect x="12" y="12" width="1" height="1" fill="#D4A017"/>

  <!-- Tail tip row 13 -->
  <rect x="12" y="13" width="1" height="1" fill="#D4A017"/>
</svg>
